<?xml version="1.0" standalone="no"?>
<!DOCTYPE svg PUBLIC "-//W3C//DTD SVG 20010904//EN"
 "http://www.w3.org/TR/2001/REC-SVG-20010904/DTD/svg10.dtd">
<svg version="1.0" xmlns="http://www.w3.org/2000/svg"
 width="2432.000000pt" height="1760.000000pt" viewBox="0 0 2432.000000 1760.000000"
 preserveAspectRatio="xMidYMid meet">

<g transform="translate(0.000000,1760.000000) scale(0.100000,-0.100000)"
fill="#000000" stroke="none">
<path d="M0 17590 c0 -7 288 -10 843 -10 2077 0 16453 -1 19785 0 2454 0 3692
3 3692 10 0 7 -4060 10 -12160 10 -8100 0 -12160 -3 -12160 -10z"/>
<path d="M10454 14811 c-68 -31 -124 -129 -124 -215 0 -42 -22 -86 -42 -86
-20 0 -67 -59 -77 -98 -18 -65 2 -131 58 -194 29 -33 29 -34 33 -193 4 -169 8
-186 57 -238 54 -59 43 -57 518 -57 241 1 450 4 464 7 20 4 28 13 33 35 12 60
-23 57 769 58 794 0 797 0 797 -54 0 -19 6 -26 28 -30 62 -12 847 -18 888 -7
54 14 106 72 129 141 13 40 17 83 16 174 -1 130 3 156 24 156 21 0 63 57 76
103 22 83 -2 148 -71 192 -38 24 -40 28 -40 75 0 49 -29 144 -58 188 -8 13
-32 32 -53 43 -37 19 -74 19 -1711 19 -1615 0 -1674 -1 -1714 -19z m3413 -47
c49 -40 84 -120 80 -189 l-2 -50 -1787 -2 c-1124 -1 -1790 2 -1794 8 -14 23 9
122 40 167 49 70 76 86 159 92 40 3 791 5 1669 5 l1597 0 38 -31z m137 -298
c44 -18 56 -42 56 -107 0 -46 -4 -55 -36 -85 -19 -19 -45 -34 -57 -35 -12 0
-834 -2 -1827 -3 -1973 -3 -1838 -7 -1874 54 -19 32 -21 98 -5 134 27 59 -93
55 1892 56 1547 0 1823 -2 1851 -14z m-3530 -282 c23 -9 24 -402 1 -410 -25
-10 -74 16 -103 54 -26 34 -27 41 -30 182 -4 170 0 180 73 180 24 0 50 -3 59
-6z m514 -201 l2 -203 -225 0 -225 0 -5 23 c-4 17 0 338 4 380 1 4 101 6 224
5 l222 -3 3 -202z m2257 182 c0 -19 -11 -20 -1102 -19 -607 0 -1106 3 -1109 7
-4 3 -4 13 -1 22 6 13 122 15 1109 13 1091 -3 1103 -3 1103 -23z m520 -180 l0
-200 -235 0 -235 0 -3 203 -2 202 237 -2 238 -3 0 -200z m184 192 c7 -9 10
-61 8 -148 -2 -120 -4 -138 -26 -176 -26 -45 -78 -80 -105 -70 -14 6 -16 30
-16 200 0 107 3 197 7 200 12 13 120 7 132 -6z m-706 -86 c7 -7 7 -14 -1 -24
-15 -17 -2184 -19 -2202 -1 -8 8 -8 15 3 25 11 12 186 14 1101 12 738 -1 1092
-5 1099 -12z m2 -106 c0 -20 -8 -20 -1099 -23 -675 -1 -1104 2 -1109 7 -5 5
-7 17 -4 25 6 15 114 16 1109 14 1095 -3 1103 -3 1103 -23z m-5 -75 c6 -11 10
-44 8 -73 l-3 -52 -127 -3 -126 -3 -22 31 c-48 68 -10 65 -785 68 -385 2 -720
0 -744 -3 -43 -7 -81 -35 -106 -78 -9 -16 -27 -18 -149 -18 -76 -1 -142 3
-147 8 -11 11 -15 111 -5 121 4 4 497 9 1094 12 598 3 1090 6 1094 8 4 1 12
-7 18 -18z"/>
<path d="M10543 14747 c-56 -30 -70 -106 -29 -154 24 -27 26 -28 142 -30 149
-3 181 12 191 87 5 35 2 43 -27 70 -18 16 -44 30 -59 31 -147 5 -202 4 -218
-4z m240 -56 c20 -16 22 -52 5 -69 -8 -8 -49 -12 -118 -12 -112 0 -130 6 -130
46 0 41 26 50 151 49 49 0 82 -5 92 -14z"/>
<path d="M13513 14747 c-47 -9 -73 -39 -73 -83 0 -48 19 -82 53 -94 16 -5 76
-10 133 -10 96 0 105 2 133 26 26 22 31 33 31 69 0 31 -6 51 -22 69 -21 23
-31 25 -120 28 -54 2 -115 0 -135 -5z m222 -60 c14 -19 11 -40 -8 -64 -6 -9
-43 -13 -118 -13 -97 0 -109 2 -119 19 -14 28 -13 47 7 66 25 25 219 18 238
-8z"/>
<path d="M10530 14400 c-26 -26 -25 -44 2 -70 27 -25 50 -26 71 -2 21 23 21
41 1 70 -19 27 -48 28 -74 2z"/>
<path d="M11585 14395 c-30 -29 -31 -39 -5 -65 25 -25 52 -26 73 -2 23 26 21
58 -5 76 -30 21 -35 20 -63 -9z"/>
<path d="M12627 14402 c-23 -25 -22 -69 2 -82 32 -17 60 -12 76 14 14 20 14
29 4 48 -22 42 -55 50 -82 20z"/>
<path d="M13692 14413 c-7 -3 -18 -16 -23 -30 -21 -55 46 -97 84 -55 43 47 -2
109 -61 85z"/>
<path d="M8480 13572 c-21 -21 -42 -52 -45 -68 -20 -86 -26 -101 -47 -112 -13
-6 -84 -40 -159 -76 -75 -36 -139 -73 -143 -82 -9 -22 -7 -577 2 -590 4 -6 32
-14 62 -17 169 -20 380 -97 520 -190 161 -108 256 -236 307 -417 27 -98 24
-336 -6 -445 -61 -217 -218 -394 -437 -491 -95 -42 -255 -91 -339 -104 -44 -7
-86 -16 -94 -20 -19 -10 -19 -4389 1 -4402 7 -4 21 -8 30 -8 24 0 164 -34 221
-54 204 -69 407 -206 516 -347 38 -49 92 -170 113 -251 17 -68 19 -102 15
-207 -5 -143 -29 -230 -94 -336 -111 -185 -389 -358 -683 -425 -30 -7 -73 -17
-94 -24 l-40 -11 1 -495 c0 -382 3 -501 13 -520 27 -53 54 -71 154 -102 56
-17 109 -38 118 -46 9 -8 20 -33 23 -56 5 -32 16 -49 47 -75 56 -48 99 -60
204 -61 200 -1 272 66 311 283 l17 99 75 -6 c156 -13 286 -29 308 -37 27 -10
28 -17 7 -133 -20 -119 -16 -133 42 -142 96 -14 181 42 236 156 53 110 113
333 184 680 l25 125 256 515 c141 283 266 535 279 560 42 83 122 278 149 362
39 123 80 330 110 549 14 107 35 255 45 329 10 74 22 180 25 235 4 55 9 114
12 130 12 81 14 668 4 1055 -15 564 -41 848 -88 975 -19 52 -87 184 -133 260
-20 33 -52 89 -72 125 -57 104 -160 286 -226 402 -34 58 -62 109 -62 111 0 6
-75 132 -100 167 -10 14 -28 43 -40 65 -161 284 -170 307 -229 605 -15 74 -77
705 -96 970 -7 92 -25 258 -49 442 -39 292 -145 636 -250 813 -47 78 -55 57
-71 -185 -4 -58 -11 -110 -16 -116 -7 -9 -20 -8 -52 2 -67 21 -271 95 -276
100 -2 2 -3 102 -2 221 2 307 -3 315 -209 333 -69 5 -151 13 -183 16 -57 5
-59 4 -97 -34z m324 -32 c119 -12 121 -16 121 -193 -1 -578 -6 -797 -16 -797
-6 0 -28 13 -48 28 -68 54 -176 111 -275 146 -55 20 -104 40 -110 46 -13 13
-17 537 -6 663 5 62 12 82 30 102 24 25 26 25 125 19 55 -3 135 -9 179 -14z
m-386 -554 c3 -402 7 -379 -75 -352 -26 8 -81 19 -122 25 -40 5 -79 15 -84 20
-16 16 -12 518 5 538 6 8 59 37 117 65 59 27 113 53 121 58 8 5 20 8 25 6 6
-2 11 -132 13 -360z m1053 -59 c40 -110 106 -408 129 -584 10 -81 28 -254 40
-383 11 -129 22 -257 25 -285 3 -27 10 -111 15 -185 24 -304 68 -594 110 -721
19 -59 25 -99 16 -99 -3 0 -53 16 -112 36 -180 59 -340 86 -592 100 -59 3
-113 7 -119 9 -10 3 -13 41 -13 144 0 148 5 171 42 211 71 78 151 238 186 374
23 89 26 120 25 256 -1 291 -58 456 -225 656 l-38 45 0 234 c0 141 4 236 10
240 5 3 87 -21 182 -55 95 -33 177 -59 184 -56 6 2 13 46 17 109 4 58 12 118
18 133 l12 29 30 -65 c16 -36 42 -100 58 -143z m-859 -259 c149 -60 316 -184
400 -298 32 -45 89 -152 110 -210 44 -120 52 -172 53 -345 0 -153 -3 -180 -27
-270 -47 -177 -104 -281 -222 -403 -81 -84 -163 -142 -277 -196 -126 -59 -166
-70 -178 -48 -8 16 -6 73 3 98 3 7 29 23 59 37 246 112 400 277 475 507 41
125 49 332 18 471 -34 155 -155 334 -294 437 -66 49 -217 132 -241 132 -25 0
-40 74 -25 115 9 22 36 16 146 -27z m318 -1731 c0 -62 -4 -117 -8 -123 -4 -6
-76 -16 -160 -23 -84 -6 -178 -17 -209 -22 -70 -13 -85 -8 -81 31 3 29 8 33
89 60 47 16 101 37 120 48 94 53 117 68 154 97 50 40 77 55 87 49 5 -3 8 -56
8 -117z m-516 27 c10 -26 7 -184 -4 -205 -6 -10 -18 -19 -27 -19 -23 0 -151
-47 -195 -72 -24 -14 -42 -18 -47 -12 -12 12 -18 245 -8 262 5 6 23 12 40 13
18 0 73 11 122 24 112 28 112 28 119 9z m504 -216 c17 -17 17 -2479 0 -2496
-7 -7 -40 -12 -79 -12 -69 0 -175 -12 -287 -31 -48 -9 -66 -9 -77 1 -13 11
-15 162 -15 1240 0 954 3 1230 13 1243 13 17 150 40 327 56 52 4 97 9 101 10
3 0 10 -4 17 -11z m302 -4 c181 -16 350 -49 534 -105 89 -27 73 -9 196 -219
40 -69 92 -156 115 -195 39 -66 91 -156 143 -248 13 -23 39 -67 57 -97 18 -30
52 -91 75 -135 23 -44 45 -84 50 -90 4 -5 21 -35 37 -65 17 -30 58 -102 92
-160 84 -144 121 -264 137 -448 3 -37 10 -96 15 -132 5 -36 12 -203 16 -372 5
-250 4 -310 -7 -323 -12 -14 -29 -16 -119 -10 -58 4 -117 9 -131 10 -14 2 -97
6 -185 9 -180 8 -326 20 -495 41 -127 16 -337 31 -590 41 -91 4 -170 11 -177
16 -16 13 -18 2465 -1 2485 10 13 72 12 238 -3z m-802 -1301 l2 -1242 -37 -10
c-21 -5 -76 -17 -123 -27 -47 -9 -89 -18 -95 -20 -36 -13 -35 -17 -35 1211 0
1334 -7 1224 72 1265 59 32 169 70 193 67 20 -2 20 -10 23 -1244z m490 -1249
l22 -4 -2 -867 c-2 -645 -6 -867 -15 -870 -6 -2 -26 9 -45 25 -44 37 -174 117
-235 143 -26 12 -67 30 -90 40 -23 11 -47 19 -53 19 -27 0 -30 74 -30 749 0
580 2 700 14 710 7 6 91 20 187 31 95 11 174 22 175 23 5 5 48 5 72 1z m552
-15 c107 -5 213 -14 235 -19 40 -8 122 -16 270 -25 44 -2 154 -9 245 -14 91
-6 232 -13 315 -17 96 -4 153 -10 157 -17 7 -10 11 -404 8 -657 -1 -120 -23
-434 -36 -525 -8 -54 -17 -69 -93 -154 -111 -124 -246 -253 -391 -372 -36 -30
-67 -56 -70 -60 -6 -8 -195 -157 -230 -182 -98 -69 -233 -154 -303 -189 -67
-34 -95 -42 -154 -46 -64 -4 -77 -2 -106 18 -43 29 -97 104 -162 222 -29 54
-80 134 -113 178 l-61 80 0 881 c0 582 3 888 10 901 11 21 46 21 479 -3z
m-1042 -743 c1 -430 -2 -704 -7 -709 -6 -6 -46 1 -108 20 -54 17 -114 35 -133
40 l-35 9 -3 644 c-1 406 1 647 8 654 12 12 193 44 240 42 l35 -1 3 -699z
m-131 -732 c60 -20 114 -41 121 -46 15 -13 16 -114 2 -123 -6 -4 -39 2 -73 13
-34 11 -87 25 -117 32 -30 6 -62 14 -71 16 -21 6 -32 61 -23 109 8 45 23 45
161 -1z m2314 -166 c-25 -169 -51 -300 -93 -458 -52 -197 -78 -256 -401 -900
-277 -553 -328 -678 -357 -865 -5 -38 -22 -117 -36 -175 -79 -323 -139 -448
-232 -487 -38 -16 -82 -10 -82 11 0 7 4 35 9 62 5 27 12 81 16 120 l6 71 -108
16 c-59 9 -157 19 -216 23 -73 5 -113 11 -123 21 -22 22 -21 1065 1 1083 27
22 103 144 145 231 65 137 83 238 78 462 -2 103 -1 187 3 187 4 0 23 -15 43
-34 129 -118 310 -58 686 228 166 126 222 170 334 266 98 85 247 231 286 281
19 24 39 47 45 51 18 13 17 -48 -4 -194z m-2046 62 c22 -10 56 -24 75 -33 115
-47 278 -172 361 -277 169 -214 225 -560 139 -870 -20 -72 -97 -229 -137 -279
-122 -152 -295 -273 -473 -330 -46 -15 -60 3 -60 81 0 46 4 61 22 78 12 11 26
20 31 20 19 0 133 63 192 106 168 121 284 280 321 441 16 69 21 233 9 319 -24
180 -146 374 -310 495 -65 48 -218 139 -234 139 -27 0 -39 67 -21 114 10 28
12 27 85 -4z m370 -2188 c0 -492 -2 -555 -18 -622 -39 -163 -89 -202 -260
-204 -100 -1 -118 3 -175 42 -10 7 -13 117 -12 551 0 346 4 550 11 562 5 10
19 19 30 19 32 0 257 113 334 167 43 31 74 46 80 41 6 -6 10 -204 10 -556z
m-505 -63 c0 -384 -3 -570 -10 -574 -6 -4 -16 -2 -23 3 -7 6 -52 22 -101 37
-112 34 -159 72 -160 131 0 21 1 236 2 476 l2 438 28 5 c15 4 74 21 132 39 72
23 109 30 118 23 9 -7 12 -135 12 -578z"/>
<path d="M9270 11381 c-5 -11 -10 -51 -10 -90 0 -61 3 -72 22 -85 31 -22 84
-20 107 3 28 28 27 145 0 172 -27 27 -104 26 -119 0z m77 -88 c2 -52 -12 -78
-28 -52 -5 8 -9 36 -9 62 0 41 3 48 18 45 13 -2 17 -15 19 -55z"/>
<path d="M9759 10428 c-1 -40 -1 -538 0 -1107 1 -763 4 -1037 12 -1042 7 -4
41 -7 77 -8 36 0 122 -5 191 -11 70 -5 163 -12 208 -16 45 -3 94 -7 110 -9 15
-2 86 -7 157 -11 l129 -7 -7 239 c-7 233 -22 494 -31 524 -2 8 -7 40 -10 70
-3 30 -12 75 -19 100 -16 52 -110 253 -136 290 -10 14 -26 41 -37 60 -24 45
-199 336 -252 420 -22 36 -50 81 -61 100 -11 19 -33 54 -48 77 -15 23 -48 77
-75 120 -76 126 -181 276 -194 281 -10 3 -13 -16 -14 -70z m137 -186 c30 -46
52 -88 48 -93 -4 -8 -133 -14 -135 -6 -5 21 -9 177 -4 196 7 25 7 26 22 6 8
-11 39 -58 69 -103z m121 -199 c13 -15 41 -59 64 -98 23 -38 60 -99 83 -135
58 -90 116 -187 116 -194 0 -6 77 -136 116 -196 13 -19 46 -84 75 -144 54
-116 80 -216 100 -395 15 -124 18 -617 4 -615 -5 1 -46 5 -90 8 -44 3 -105 8
-135 11 -30 2 -100 7 -155 10 -261 15 -369 25 -379 35 -13 13 -19 1672 -7
1717 7 25 13 28 62 33 76 7 120 -4 146 -37z"/>
<path d="M9304 8782 c-50 -8 -55 -26 -52 -208 l3 -169 27 -13 c34 -16 93 -7
119 19 16 16 18 35 18 154 -1 75 -5 151 -10 170 -10 34 -12 36 -74 49 -5 1
-20 0 -31 -2z m64 -192 c2 -124 0 -147 -14 -157 -17 -12 -44 -7 -56 11 -9 13
-10 260 -1 282 4 10 16 14 37 12 l31 -3 3 -145z"/>
<path d="M9760 7751 c-1 -1509 -1 -1531 13 -1531 6 0 36 15 66 33 30 17 73 43
95 56 66 38 289 197 310 220 11 12 23 21 28 21 18 0 185 160 246 235 42 52 79
127 93 190 13 59 25 1040 12 1048 -4 3 -57 8 -118 11 -273 16 -461 26 -597 32
l-148 6 0 -321z m270 264 c41 -2 143 -7 225 -10 216 -8 314 -16 320 -25 3 -4
6 -208 7 -451 1 -478 -4 -544 -48 -636 -28 -58 -157 -205 -224 -255 l-45 -33
-230 5 -230 5 -3 685 c-1 377 0 695 3 708 5 21 9 22 78 17 39 -3 106 -7 147
-10z m136 -1468 c13 -12 -31 -48 -194 -157 -122 -82 -156 -100 -163 -89 -12
20 -11 216 2 240 10 19 19 20 179 17 93 -2 172 -7 176 -11z"/>
<path d="M9272 6515 c-21 -26 -22 -39 -22 -191 0 -163 0 -164 25 -180 35 -23
103 -14 128 17 18 22 19 38 15 182 -4 179 -7 186 -80 194 -40 5 -47 2 -66 -22z
m96 -183 c-3 -145 -3 -147 -26 -150 -13 -2 -28 1 -35 6 -13 11 -22 225 -12
273 7 30 30 41 58 27 16 -8 17 -23 15 -156z"/>
<path d="M10486 6527 c-107 -91 -697 -674 -724 -716 -15 -22 -17 -79 -20 -532
-2 -301 0 -514 6 -524 7 -14 25 9 89 112 44 70 103 169 132 218 28 50 60 106
72 125 192 320 264 468 358 737 123 352 188 624 150 623 -8 -1 -36 -20 -63
-43z m14 -74 c-1 -60 -173 -613 -218 -699 -5 -10 -34 -68 -63 -129 -29 -60
-71 -141 -94 -180 -23 -38 -77 -133 -120 -210 -43 -77 -95 -165 -115 -195 -20
-30 -47 -74 -60 -97 -13 -24 -27 -43 -32 -43 -11 0 -13 662 -3 785 2 22 4 56
5 75 0 31 16 51 148 186 202 206 524 513 540 514 6 0 12 -3 12 -7z"/>
<path d="M15685 13599 c-22 -4 -74 -8 -115 -9 -126 -2 -167 -12 -208 -54 l-37
-36 3 -234 3 -233 -148 -52 c-81 -28 -158 -51 -170 -51 -28 0 -30 7 -42 198
-5 85 -12 157 -16 160 -19 19 -113 -170 -176 -356 -95 -281 -146 -605 -194
-1237 -3 -44 -8 -100 -10 -125 -3 -25 -12 -119 -20 -210 -33 -358 -80 -585
-152 -740 -24 -52 -54 -111 -67 -130 -13 -19 -36 -57 -52 -84 -16 -28 -39 -66
-51 -85 -12 -20 -39 -65 -59 -101 -21 -36 -62 -108 -92 -160 -30 -52 -69 -122
-87 -155 -18 -33 -50 -89 -71 -125 -22 -36 -53 -90 -68 -120 -16 -30 -49 -88
-74 -129 -71 -117 -130 -250 -151 -342 -26 -108 -49 -308 -56 -479 -3 -74 -7
-171 -10 -215 -2 -44 -7 -280 -11 -525 -5 -394 2 -705 20 -835 3 -16 7 -61 11
-100 12 -148 97 -707 130 -855 55 -253 96 -350 421 -995 301 -600 325 -656
355 -845 11 -73 85 -384 99 -415 5 -11 14 -38 21 -60 36 -119 110 -224 175
-251 47 -20 107 -18 135 4 22 19 22 21 11 103 -7 46 -12 101 -12 121 0 45 -13
41 204 63 87 9 164 19 171 21 19 8 33 -18 40 -71 9 -69 35 -175 51 -207 35
-68 139 -108 279 -108 63 0 91 5 130 24 68 31 105 71 105 110 0 53 21 71 116
96 95 26 159 66 184 115 12 25 14 108 13 518 -1 269 -4 491 -6 493 -3 3 -51
16 -108 28 -243 55 -453 162 -598 304 -114 111 -165 203 -197 352 -49 229 28
480 202 655 141 142 361 253 608 305 48 10 90 21 92 23 3 2 5 991 5 2197 1
1822 -1 2194 -12 2201 -7 4 -43 11 -79 15 -161 17 -400 112 -525 208 -133 102
-212 210 -256 347 -50 153 -61 287 -35 421 16 85 57 197 86 238 11 15 20 34
20 40 0 7 39 51 88 99 157 155 376 258 617 292 44 6 86 15 93 21 9 8 12 80 12
297 0 157 -4 291 -8 297 -4 7 -77 46 -162 88 -85 43 -161 84 -167 93 -7 9 -13
28 -13 42 0 40 -40 111 -74 132 -33 20 -48 21 -111 8z m109 -69 c14 -17 28
-45 31 -63 3 -18 4 -183 3 -367 l-3 -334 -111 -41 c-122 -46 -207 -90 -271
-141 -23 -19 -46 -34 -51 -34 -13 0 -23 917 -10 945 17 38 46 47 177 52 69 3
128 7 130 9 2 2 21 4 42 4 29 0 43 -7 63 -30z m157 -201 c24 -12 55 -29 69
-39 14 -9 51 -27 83 -40 39 -15 59 -29 62 -44 3 -11 4 -136 3 -276 l-3 -255
-45 -8 c-25 -4 -87 -17 -137 -29 -51 -12 -96 -19 -99 -15 -8 7 -5 707 2 719 8
12 16 10 65 -13z m-1016 -319 c4 -66 13 -126 19 -135 12 -17 13 -16 255 67 69
23 117 35 120 29 4 -6 6 -116 6 -246 l-1 -235 -35 -38 c-107 -115 -179 -257
-215 -427 -21 -98 -21 -337 0 -437 28 -132 108 -304 184 -395 23 -26 45 -59
50 -73 15 -39 16 -297 1 -306 -6 -4 -46 -8 -88 -9 -261 -7 -465 -39 -636 -100
-113 -40 -124 -34 -93 55 50 147 95 482 138 1030 35 452 61 641 125 930 19 89
71 256 95 307 11 24 20 45 20 48 0 11 32 55 40 55 5 0 11 -54 15 -120z m898
-358 c0 -55 -7 -72 -29 -72 -41 0 -252 -132 -323 -202 -95 -94 -170 -221 -207
-348 -14 -51 -19 -99 -19 -225 0 -138 3 -170 23 -237 56 -190 156 -329 314
-439 59 -40 189 -109 207 -109 18 0 31 -37 31 -91 l0 -51 -31 6 c-47 9 -187
77 -275 134 -162 105 -313 294 -360 451 -44 151 -62 347 -43 486 40 295 215
542 482 677 89 45 211 88 221 78 5 -5 9 -31 9 -58z m-402 -1625 c111 -83 240
-152 332 -178 56 -17 69 -27 65 -58 -4 -31 7 -31 -248 -6 -102 9 -191 22 -197
27 -15 12 -19 248 -4 248 4 0 28 -15 52 -33z m561 -72 c57 -14 117 -25 134
-25 20 0 34 -6 38 -16 3 -9 6 -69 6 -135 0 -135 -6 -145 -63 -111 -27 15 -137
55 -214 78 -12 3 -16 26 -15 84 0 14 0 53 1 88 1 34 3 62 5 62 3 0 51 -11 108
-25z m-674 -212 c11 -24 7 -2472 -4 -2483 -5 -5 -90 -11 -189 -15 -227 -8
-462 -23 -540 -35 -106 -17 -237 -29 -365 -35 -282 -13 -341 -16 -469 -26 -73
-6 -136 -7 -140 -4 -3 4 -5 50 -5 103 1 54 3 176 4 272 3 177 7 238 36 475 25
213 66 340 147 459 15 21 27 43 27 48 0 5 17 37 39 71 21 34 55 94 75 132 21
39 88 157 149 263 62 106 123 212 136 235 12 23 58 101 101 172 43 72 89 150
103 175 13 25 35 51 48 57 108 57 250 94 464 122 275 36 370 40 383 14z m380
-18 c62 -8 118 -17 123 -20 12 -8 12 -2492 0 -2499 -4 -3 -50 1 -102 9 -52 8
-146 18 -209 21 -63 4 -121 11 -127 17 -10 7 -13 269 -13 1247 0 680 3 1240 8
1245 9 10 174 0 320 -20z m278 -56 c83 -25 172 -76 180 -103 4 -11 7 -554 9
-1208 2 -1022 0 -1192 -12 -1204 -8 -8 -19 -12 -24 -9 -7 5 -96 21 -211 39
-44 6 -43 -30 -43 1169 0 1292 1 1337 20 1337 7 0 44 -9 81 -21z m-658 -3375
l2 -901 -51 -64 c-49 -62 -90 -126 -158 -254 -77 -142 -133 -181 -243 -172
-56 5 -85 14 -154 51 -281 150 -753 536 -998 816 -64 74 -70 92 -86 250 -6 63
-13 131 -16 150 -3 19 -8 229 -10 465 -5 350 -3 433 8 447 11 13 41 17 168 22
85 4 178 9 205 11 28 3 95 7 150 10 238 12 315 17 390 26 80 9 234 23 420 37
55 4 161 7 235 7 l135 0 3 -901z m222 886 c193 -20 275 -31 283 -39 4 -4 6
-331 5 -726 l-3 -719 -35 -17 c-19 -9 -93 -45 -164 -80 -71 -34 -152 -80 -180
-101 -28 -21 -55 -37 -61 -35 -15 5 -19 1705 -4 1723 6 8 21 12 33 9 11 -2 68
-9 126 -15z m505 -62 c111 -20 109 -19 115 -74 3 -27 4 -317 3 -644 -1 -555
-3 -595 -19 -607 -10 -7 -27 -13 -38 -13 -12 0 -65 -16 -119 -34 -67 -23 -99
-30 -104 -23 -10 17 -10 1379 0 1401 9 19 24 19 162 -6z m-2328 -1414 c15 -19
35 -43 43 -52 23 -26 261 -254 295 -282 28 -22 169 -135 205 -163 110 -85 151
-115 245 -182 137 -98 272 -164 347 -172 84 -9 153 12 198 59 43 44 54 39 38
-18 -14 -54 -4 -362 15 -434 34 -126 101 -260 180 -363 l45 -57 0 -523 c-1
-287 -3 -527 -5 -534 -5 -13 -41 -20 -148 -28 -68 -5 -168 -16 -185 -20 -3 -1
-31 -5 -64 -10 l-59 -8 7 -87 c4 -48 10 -100 14 -116 4 -16 6 -40 4 -53 -3
-21 -7 -23 -44 -18 -128 17 -203 181 -302 660 -19 92 -47 207 -63 255 -17 55
-131 295 -308 647 -243 484 -311 630 -355 755 -40 115 -95 365 -130 594 -30
197 -26 219 27 150z m2447 20 c3 -9 6 -38 6 -65 0 -58 3 -56 -150 -95 -141
-35 -134 -36 -140 11 -11 78 -6 83 115 125 125 42 160 47 169 24z m-334 -163
l0 -58 -72 -36 c-261 -131 -414 -303 -478 -537 -20 -70 -24 -110 -24 -225 -1
-128 2 -147 27 -217 40 -113 91 -192 187 -289 92 -93 159 -141 276 -195 40
-19 78 -43 83 -52 10 -20 5 -132 -8 -145 -16 -16 -183 56 -296 128 -98 62
-216 185 -272 284 -164 286 -175 676 -28 949 42 76 47 84 110 157 56 65 155
146 230 190 72 41 216 104 243 104 20 1 22 -3 22 -58z m-373 -1633 c62 -47
210 -124 323 -168 l45 -18 5 -548 c4 -466 3 -552 -9 -567 -53 -66 -311 -56
-373 15 -10 11 -30 57 -45 101 l-27 82 -4 554 c-3 501 -1 601 13 601 2 0 35
-23 72 -52z m543 -23 c57 -19 114 -35 126 -35 12 0 27 -6 33 -14 8 -9 10 -146
9 -484 -3 -454 -4 -471 -23 -492 -27 -30 -58 -45 -139 -65 -38 -9 -80 -23 -92
-31 -16 -11 -24 -12 -29 -4 -9 14 -8 1137 0 1150 8 13 -5 15 115 -25z"/>
<path d="M14901 11382 c-14 -26 -14 -122 -1 -156 9 -24 15 -26 64 -26 68 0 76
12 76 103 0 77 -10 88 -79 95 -42 4 -51 1 -60 -16z m89 -75 c7 -55 0 -70 -26
-65 -15 3 -19 13 -20 53 -2 58 2 67 24 63 12 -2 19 -17 22 -51z"/>
<path d="M14468 10436 c-57 -61 -184 -240 -249 -351 -23 -38 -51 -86 -64 -105
-18 -29 -90 -153 -164 -283 -10 -18 -35 -61 -56 -97 -72 -121 -193 -385 -209
-453 -29 -126 -45 -291 -57 -600 -9 -230 -10 -310 -1 -319 9 -9 58 -8 199 1
103 7 195 14 203 16 8 1 67 6 130 10 63 4 126 9 140 10 14 2 57 4 95 5 39 2
78 7 88 12 16 8 17 71 17 1103 0 724 -3 1096 -10 1100 -6 3 -34 -19 -62 -49z
m20 -183 l-3 -118 -65 0 c-75 -1 -90 3 -90 19 1 23 136 216 152 216 5 0 7 -53
6 -117z m-8 -179 c11 -11 17 -1725 5 -1744 -6 -10 -66 -17 -205 -25 -52 -3
-151 -10 -220 -15 -69 -5 -176 -12 -237 -16 l-113 -7 0 164 c0 193 24 531 46
644 26 135 130 354 337 710 124 213 172 287 190 294 29 11 185 7 197 -5z"/>
<path d="M14930 8782 c-45 -7 -49 -25 -50 -203 0 -134 3 -169 15 -179 18 -15
123 -16 138 -1 15 15 17 355 2 370 -12 12 -69 19 -105 13z m65 -197 l0 -150
-32 -3 c-22 -2 -33 1 -34 10 -7 63 -4 267 3 281 6 12 18 17 36 15 l27 -3 0
-150z"/>
<path d="M14407 8064 c-1 -1 -72 -4 -157 -8 -333 -13 -565 -29 -572 -40 -10
-15 -9 -891 1 -987 5 -46 18 -98 35 -134 30 -66 113 -173 188 -243 29 -26 60
-55 70 -64 24 -23 200 -155 263 -198 120 -80 279 -170 292 -166 11 5 13 163
11 923 l-3 918 -63 1 c-34 0 -63 -1 -65 -2z m83 -331 c0 -158 1 -544 1 -856 1
-326 -2 -572 -8 -578 -21 -21 -430 266 -566 400 -127 123 -172 195 -188 304
-14 84 -21 931 -9 963 9 23 34 26 380 40 85 4 156 7 157 8 1 0 53 3 117 4
l116 4 0 -289z"/>
<path d="M14910 6524 l-30 -13 -1 -133 c-2 -182 0 -210 18 -230 27 -31 121
-20 145 16 13 20 9 309 -5 336 -16 31 -81 43 -127 24z m78 -46 c14 -14 17
-265 3 -286 -4 -8 -19 -12 -32 -10 -30 4 -36 33 -38 174 -2 109 5 134 38 134
9 0 22 -5 29 -12z"/>
<path d="M13739 6568 c-10 -113 125 -574 249 -855 65 -146 171 -343 303 -563
37 -63 80 -137 95 -165 15 -27 44 -77 66 -109 22 -33 48 -77 59 -98 11 -21 23
-38 28 -38 17 0 23 194 19 612 -4 373 -6 427 -21 455 -30 57 -759 773 -787
773 -5 0 -10 -6 -11 -12z m410 -424 c80 -76 158 -152 174 -169 16 -16 62 -63
101 -104 l71 -73 5 -147 c11 -290 6 -744 -7 -748 -7 -3 -13 1 -13 7 0 7 -25
50 -55 95 -30 46 -55 87 -55 91 0 4 -24 48 -54 98 -53 89 -79 136 -139 246
-16 30 -33 60 -37 65 -29 38 -145 291 -180 390 -47 136 -160 519 -160 545 0
37 17 27 109 -63 53 -52 161 -156 240 -233z"/>
<path d="M11540 13402 c-19 -2 -46 -12 -60 -21 -14 -10 -36 -21 -50 -25 -37
-10 -410 -72 -605 -101 -324 -47 -317 -46 -327 -80 -4 -16 -6 -583 -3 -1260
l5 -1230 39 -160 c21 -88 60 -250 86 -360 26 -110 73 -308 105 -440 75 -308
76 -313 102 -685 20 -285 22 -392 22 -1120 1 -716 -8 -1097 -29 -1335 -2 -27
-7 -97 -10 -155 -6 -105 -19 -188 -55 -371 -11 -53 -22 -114 -25 -135 -3 -22
-15 -82 -25 -134 -11 -52 -31 -160 -45 -240 -14 -80 -32 -181 -40 -225 -8 -44
-26 -143 -40 -220 -34 -192 -62 -336 -80 -425 -13 -62 -16 -163 -18 -570 l-1
-494 39 -12 c22 -6 67 -14 100 -18 33 -3 92 -12 130 -20 39 -8 93 -17 120 -21
28 -3 91 -12 140 -20 276 -43 375 -46 1230 -42 694 3 836 6 925 20 225 35 370
59 489 80 121 22 125 24 132 51 4 16 6 240 5 500 -3 405 -6 481 -21 541 -9 39
-32 158 -51 265 -19 107 -50 283 -69 390 -19 107 -41 224 -49 260 -8 36 -22
108 -31 160 -8 52 -22 127 -30 165 -40 190 -76 425 -84 560 -38 586 -54 1501
-38 2085 5 162 10 306 13 319 2 14 8 142 14 285 10 226 15 274 37 356 14 52
27 108 30 125 3 16 22 86 43 155 20 69 54 190 75 270 55 209 114 427 133 485
14 45 16 187 19 1353 l3 1302 -22 9 c-13 4 -52 11 -88 15 -121 13 -208 24
-460 61 -52 8 -144 21 -205 29 -135 19 -172 30 -201 57 -22 21 -26 21 -631 22
-334 1 -624 1 -643 -1z m1233 -69 c8 -16 17 -41 21 -58 4 -16 14 -43 21 -60
18 -39 94 -251 139 -386 19 -57 58 -169 86 -249 29 -80 80 -226 115 -325 69
-197 150 -425 245 -695 62 -175 140 -394 223 -630 24 -69 48 -134 54 -145 6
-11 13 -33 17 -49 7 -27 6 -28 -26 -23 -18 3 -58 12 -88 21 -89 25 -316 64
-440 75 -63 6 -277 11 -475 11 -198 1 -391 3 -430 5 -184 10 -985 7 -1070 -4
-122 -17 -394 -69 -480 -92 -84 -23 -95 -23 -95 -4 0 18 -1 15 145 410 59 160
153 418 210 575 56 157 113 310 125 340 12 30 37 98 55 150 19 52 48 133 65
180 48 127 138 376 165 455 13 39 54 149 90 245 37 96 71 191 77 210 22 75
-28 70 639 70 l598 0 14 -27z m-1299 -22 c5 -7 -59 -193 -94 -276 -5 -11 -21
-54 -35 -95 -50 -140 -124 -345 -165 -455 -37 -98 -82 -220 -142 -385 -11 -30
-45 -122 -74 -205 -29 -82 -67 -188 -85 -235 -17 -47 -51 -139 -74 -205 -24
-66 -62 -169 -85 -230 -23 -60 -65 -175 -92 -255 -28 -80 -55 -154 -61 -165
-10 -19 -11 -18 -18 9 -9 34 -12 2274 -3 2323 5 27 11 32 42 37 82 12 291 45
342 55 30 5 107 15 170 22 110 11 338 53 348 64 8 8 20 6 26 -4z m1486 -26
c87 -16 200 -32 285 -40 110 -11 149 -16 272 -36 68 -10 143 -19 168 -19 38 0
47 -4 53 -22 11 -35 9 -2382 -3 -2388 -5 -3 -15 13 -21 35 -7 22 -29 83 -49
135 -20 52 -45 120 -55 150 -10 30 -37 107 -60 170 -23 63 -56 160 -75 215
-18 55 -49 145 -70 200 -20 55 -67 188 -105 295 -38 107 -92 260 -120 340 -29
80 -55 156 -60 170 -4 14 -40 117 -80 230 -40 113 -92 261 -115 330 -24 69
-53 151 -64 183 -23 61 -20 83 8 72 9 -3 50 -13 91 -20z m-1239 -2505 c19 0
50 -24 120 -95 52 -53 94 -104 94 -113 0 -16 -22 -17 -263 -18 -256 -2 -294
-6 -278 -33 10 -16 972 -15 982 1 17 27 -25 34 -183 31 l-158 -3 -97 102 c-54
57 -98 109 -98 117 0 12 71 13 482 8 l481 -6 100 -100 c54 -55 96 -105 92
-110 -4 -7 -93 -11 -265 -11 -145 0 -261 -4 -264 -9 -4 -5 -3 -16 0 -25 6 -15
54 -16 483 -14 468 3 476 3 476 23 0 19 -8 20 -167 23 l-166 2 -97 95 c-126
124 -125 129 33 121 64 -4 149 -11 187 -17 109 -15 436 -79 470 -91 40 -15 57
-36 45 -58 -5 -9 -25 -77 -44 -151 -59 -226 -93 -350 -121 -449 -15 -52 -40
-147 -56 -210 -78 -305 -87 -332 -107 -326 -9 2 -35 8 -57 12 -22 4 -47 9 -55
11 -19 4 -224 22 -365 32 -156 12 -1405 12 -1555 1 -262 -20 -367 -30 -419
-40 -102 -19 -107 -18 -126 48 -10 31 -30 116 -45 187 -16 72 -60 258 -98 415
-102 413 -118 489 -105 508 5 9 34 22 64 28 30 6 106 23 169 38 292 68 433 85
685 80 110 -2 212 -4 226 -4z m1294 -1319 c66 -6 129 -13 140 -15 11 -2 63 -9
115 -16 52 -6 106 -16 118 -21 l24 -9 -6 -153 c-10 -245 -15 -340 -27 -547
-16 -254 -6 -1473 15 -1935 9 -186 12 -343 8 -347 -5 -5 -60 4 -123 18 -106
24 -190 40 -349 64 -38 6 -365 10 -785 10 l-720 0 -149 -25 c-82 -14 -201 -37
-265 -51 -63 -13 -122 -22 -129 -19 -12 4 -14 24 -8 108 22 332 36 868 36
1377 0 567 -5 750 -37 1248 -9 147 -12 257 -7 261 5 5 52 13 104 19 52 7 105
14 116 16 22 4 290 25 379 29 166 7 1448 -2 1550 -12z m25 -3029 c263 -51 380
-77 380 -87 0 -2 18 -100 41 -217 22 -117 49 -262 59 -323 11 -60 32 -180 49
-265 16 -85 39 -209 51 -275 12 -66 40 -214 62 -330 59 -309 62 -330 55 -347
-6 -18 -128 -87 -197 -113 -25 -10 -59 -23 -75 -30 -53 -24 -296 -83 -406 -99
-90 -14 -227 -16 -882 -16 -850 0 -908 3 -1135 60 -229 58 -484 157 -498 194
-5 14 34 261 58 366 5 25 18 92 28 150 51 292 113 632 126 688 8 35 27 143 44
240 43 255 51 297 59 311 9 13 31 19 181 50 129 27 262 49 340 57 36 3 67 8
70 11 2 2 335 2 740 0 707 -3 739 -4 850 -25z m-2446 -1931 c103 -63 449 -172
646 -203 123 -19 1719 -19 1835 0 224 37 471 120 623 208 28 17 34 17 42 4 6
-9 9 -178 7 -440 l-2 -425 -90 -17 c-110 -22 -475 -76 -565 -84 -36 -3 -72 -8
-80 -11 -8 -3 -355 -7 -770 -8 -557 -2 -792 0 -895 10 -181 17 -550 63 -595
75 -19 5 -71 14 -115 20 -44 7 -86 17 -92 22 -16 13 -17 836 -1 856 13 16 15
15 52 -7z"/>
<path d="M11517 9032 c-63 -22 -146 -96 -177 -158 -25 -49 -25 -51 -25 -309 0
-248 1 -262 22 -309 27 -57 89 -118 158 -154 l50 -27 559 -3 c491 -2 565 -1
615 14 88 25 165 90 202 171 18 39 20 69 22 305 2 256 1 264 -21 310 -28 57
-97 122 -160 151 -46 22 -56 22 -622 24 -523 2 -579 1 -623 -15z m1200 -47
c38 -11 70 -30 103 -61 79 -74 80 -77 80 -361 0 -248 0 -249 -26 -301 -33 -67
-80 -105 -154 -125 -52 -15 -128 -17 -598 -17 -620 0 -601 -2 -689 85 -35 36
-55 66 -63 96 -12 44 -15 452 -4 514 9 53 65 117 130 150 58 29 62 30 249 35
105 3 353 4 553 3 300 -2 373 -5 419 -18z"/>
<path d="M12202 6917 c-144 -144 -161 -165 -150 -180 12 -16 30 -1 177 147
148 149 174 183 145 193 -5 2 -82 -70 -172 -160z"/>
<path d="M11360 6363 c-14 -2 -70 -11 -125 -19 -157 -24 -158 -25 -198 -34
-21 -4 -41 -10 -43 -13 -8 -7 -98 -360 -143 -557 -12 -52 -28 -122 -36 -155
-8 -33 -17 -85 -21 -115 -3 -30 -13 -82 -20 -115 -18 -74 -31 -520 -16 -529 7
-4 2552 -10 2761 -6 11 0 13 47 8 288 -6 323 -6 320 -111 737 -99 388 -116
440 -145 450 -20 6 -128 26 -301 55 -107 19 -163 20 -850 19 -404 -1 -746 -3
-760 -6z m1701 -70 c52 -12 113 -24 134 -27 44 -7 71 -27 78 -59 2 -12 32
-125 65 -252 82 -314 130 -516 142 -600 10 -76 14 -453 4 -479 -5 -14 -59 -16
-500 -16 -430 0 -494 2 -494 15 0 8 37 52 83 97 133 134 106 123 289 125 88 1
165 6 170 11 5 5 6 16 3 25 -6 14 -57 15 -486 15 -406 0 -481 -2 -486 -14 -14
-36 9 -39 265 -38 138 1 256 -2 262 -6 19 -12 1 -36 -100 -135 l-90 -90 -798
0 -797 0 -2 200 c-1 227 12 342 66 552 25 96 26 100 46 193 9 41 34 145 56
230 21 85 41 167 43 182 7 41 11 45 58 53 24 4 57 9 73 12 161 28 233 30 1015
29 774 -2 809 -3 901 -23z"/>
<path d="M8150 12474 c-119 -24 -218 -68 -295 -130 -179 -144 -259 -295 -272
-515 -7 -132 12 -223 71 -340 122 -238 353 -379 622 -379 279 0 517 167 634
445 32 74 34 89 38 210 5 150 -5 210 -53 310 -85 179 -251 327 -425 380 -55
16 -269 29 -320 19z m210 -49 c112 -12 240 -71 330 -150 109 -97 175 -219 205
-378 49 -263 -86 -533 -331 -664 -126 -66 -312 -91 -444 -59 -76 18 -172 67
-253 127 -131 98 -208 239 -238 432 -31 201 91 468 266 582 105 67 199 104
287 113 46 5 94 7 108 6 14 -2 45 -6 70 -9z"/>
<path d="M8142 12191 c-51 -19 -119 -56 -153 -83 -25 -20 -90 -117 -112 -167
-24 -55 -32 -175 -15 -241 27 -107 126 -225 235 -280 63 -32 75 -34 163 -35
91 0 99 2 180 41 121 58 199 155 231 287 16 67 7 195 -17 237 -69 123 -119
174 -212 218 -67 32 -88 37 -162 40 -65 2 -98 -2 -138 -17z m316 -85 c75 -45
123 -106 153 -194 67 -198 -57 -428 -251 -468 -61 -13 -174 -6 -223 13 -126
50 -206 149 -227 282 -14 92 -4 151 38 234 31 59 113 131 179 158 39 16 68 19
158 16 107 -3 112 -4 173 -41z"/>
<path d="M15915 12470 c-185 -29 -363 -149 -473 -321 -109 -169 -132 -427 -54
-604 122 -280 361 -438 659 -436 293 2 563 213 649 507 12 42 17 93 17 179 -1
131 -15 189 -75 309 -86 173 -244 301 -433 353 -66 18 -215 24 -290 13z m257
-51 c100 -21 248 -108 328 -191 118 -124 190 -349 163 -509 -13 -75 -16 -90
-37 -148 -57 -157 -191 -295 -359 -369 -148 -66 -376 -53 -537 30 -87 45 -226
182 -269 265 -122 237 -81 536 100 734 70 76 211 158 315 183 72 18 224 20
296 5z"/>
<path d="M15970 12199 c-218 -35 -373 -240 -349 -460 16 -149 140 -292 298
-344 79 -26 207 -18 283 19 120 57 210 175 239 313 38 185 -99 403 -287 457
-73 21 -123 25 -184 15z m210 -73 c58 -30 130 -89 148 -121 10 -16 29 -56 41
-88 33 -80 27 -205 -14 -289 -50 -106 -156 -181 -270 -193 -122 -13 -230 23
-311 103 -71 69 -97 131 -102 239 -4 87 -3 95 28 162 45 97 126 172 220 202
46 15 221 5 260 -15z"/>
<path d="M17084 9787 c-2 -7 -3 -82 -2 -167 l3 -155 183 -3 182 -2 0 154 c0
85 -3 161 -6 170 -5 14 -31 16 -180 16 -134 0 -176 -3 -180 -13z m304 -36 c23
-1 23 -2 21 -116 -1 -81 -5 -120 -14 -129 -10 -10 -48 -13 -142 -12 l-128 1 0
125 0 125 75 5 c41 3 95 4 120 3 25 -1 55 -2 68 -2z"/>
<path d="M17614 9727 c-2 -7 -3 -62 -2 -123 l3 -109 60 2 c75 3 106 24 121 84
13 54 3 103 -27 135 -19 20 -32 24 -86 24 -43 0 -65 -4 -69 -13z m119 -27 c70
-55 28 -190 -54 -178 -23 3 -24 7 -27 87 -2 46 -1 90 2 98 8 20 50 16 79 -7z"/>
<path d="M19036 9718 c-3 -7 -6 -20 -9 -28 -2 -10 -14 -14 -39 -12 -29 3 -40
-2 -57 -24 -31 -39 -29 -103 5 -139 23 -25 29 -27 72 -20 26 4 50 9 53 11 3 2
5 51 5 110 -1 76 -5 109 -13 111 -7 3 -15 -1 -17 -9z m-6 -130 c0 -63 -45 -91
-74 -45 -20 32 -10 96 18 107 27 11 56 -20 56 -62z"/>
<path d="M17868 9669 c-22 -12 -24 -39 -3 -39 8 0 15 5 15 10 0 15 57 12 63
-4 8 -19 -13 -36 -44 -36 -15 0 -35 -7 -43 -16 -19 -18 -21 -65 -4 -82 15 -15
54 -16 63 -2 4 6 21 8 40 4 l34 -6 -6 79 c-4 54 -10 82 -21 91 -19 14 -70 15
-94 1z m77 -99 c3 -6 3 -19 0 -30 -9 -27 -75 -29 -75 -2 0 10 5 23 12 30 15
15 54 16 63 2z"/>
<path d="M18058 9669 c-18 -11 -18 -161 0 -166 8 -3 12 10 13 44 1 72 11 97
38 101 32 5 41 -12 41 -85 0 -49 3 -63 15 -63 12 0 15 14 15 63 0 73 9 90 41
85 22 -3 24 -9 29 -73 4 -53 9 -70 20 -70 12 0 16 16 18 69 4 97 -4 104 -123
103 -52 0 -100 -4 -107 -8z"/>
<path d="M18356 9661 c-23 -25 -4 -37 27 -16 20 13 26 13 42 1 16 -12 17 -16
6 -30 -7 -9 -24 -16 -37 -16 -29 0 -64 -33 -64 -58 0 -41 69 -69 98 -40 8 8
15 8 26 -1 19 -16 39 -5 31 18 -3 10 -8 45 -10 77 -3 40 -11 63 -22 72 -25 18
-77 15 -97 -7z m79 -111 c0 -20 -6 -26 -29 -28 -43 -5 -57 15 -27 39 31 26 56
21 56 -11z"/>
<path d="M18540 9653 c-28 -35 -27 -101 2 -138 18 -23 26 -26 55 -22 31 5 34
4 31 -16 -2 -17 -9 -22 -33 -21 -16 0 -36 2 -44 5 -27 8 -22 -21 5 -31 36 -14
81 -3 99 23 11 18 20 137 16 213 -1 6 -25 11 -56 12 -47 1 -57 -2 -75 -25z
m94 -26 c18 -67 -1 -112 -46 -105 -45 6 -50 110 -5 127 29 11 44 5 51 -22z"/>
<path d="M18731 9654 c-30 -38 -28 -104 2 -140 20 -23 28 -26 60 -20 45 8 73
34 57 50 -8 8 -14 6 -21 -6 -19 -33 -84 -17 -77 18 3 15 12 19 48 19 25 0 51
4 58 8 20 13 14 46 -13 72 -34 35 -86 34 -114 -1z m84 -10 c23 -24 13 -39 -25
-39 -18 0 -35 5 -37 11 -4 12 23 44 37 44 5 0 16 -7 25 -16z"/>
<path d="M17085 9312 c-3 -3 -5 -81 -5 -174 l0 -168 183 2 182 3 0 170 0 170
-178 1 c-97 0 -179 -2 -182 -4z"/>
<path d="M17614 9217 c-2 -7 -3 -62 -2 -123 2 -89 6 -109 18 -109 11 0 16 13
18 47 3 41 7 49 28 54 39 10 73 -3 79 -31 3 -14 7 -37 10 -51 3 -14 11 -24 18
-21 11 4 12 21 8 102 -1 17 1 46 4 66 6 31 3 39 -20 58 -22 16 -41 21 -92 21
-43 0 -65 -4 -69 -13z m134 -26 c8 -4 12 -21 10 -37 -3 -24 -9 -29 -43 -36
-55 -12 -65 -5 -65 42 l0 40 43 0 c23 0 48 -4 55 -9z"/>
<path d="M19108 9193 c-3 -25 -7 -28 -40 -28 -66 -1 -99 -58 -78 -136 14 -50
37 -62 97 -52 l48 8 3 118 c2 97 0 117 -12 117 -9 0 -16 -11 -18 -27z m-19
-66 c21 -26 24 -75 7 -102 -31 -47 -76 -20 -76 45 0 56 41 90 69 57z"/>
<path d="M18702 9173 c-8 -18 -9 -30 -2 -37 5 -5 10 -38 10 -72 0 -45 5 -67
16 -79 13 -13 19 -14 25 -4 4 7 3 21 -2 30 -12 24 -12 106 1 129 8 14 7 25 -2
40 -17 27 -31 25 -46 -7z"/>
<path d="M18117 9164 c-3 -3 -20 -6 -39 -7 l-33 -2 0 -117 c0 -71 4 -119 10
-120 6 -1 12 11 15 28 5 26 9 29 40 27 54 -4 90 35 90 97 0 61 -54 123 -83 94z
m28 -38 c23 -17 27 -85 6 -110 -34 -41 -88 8 -77 72 8 51 35 65 71 38z"/>
<path d="M18274 9160 c-24 -9 -39 -28 -30 -37 3 -3 19 0 36 7 27 11 34 11 47
-3 13 -13 14 -19 3 -31 -7 -9 -23 -16 -37 -16 -39 0 -63 -18 -63 -48 0 -32 9
-46 32 -55 24 -8 31 8 16 33 -16 25 -1 53 31 58 26 4 37 -21 23 -53 -9 -20 -8
-24 11 -29 12 -3 25 -6 28 -6 3 0 4 35 2 78 -6 100 -33 129 -99 102z"/>
<path d="M18571 9158 c-14 -5 -30 -7 -37 -4 -22 8 -30 -17 -28 -84 3 -91 3
-90 13 -90 4 0 11 32 14 72 7 80 15 93 51 84 24 -6 26 -10 26 -65 0 -74 7 -96
26 -80 16 13 19 95 4 133 -12 33 -39 46 -69 34z"/>
<path d="M18830 9157 c-49 -25 -58 -131 -14 -168 33 -27 124 -4 124 33 0 14
-27 9 -40 -8 -8 -8 -25 -14 -39 -12 -20 2 -27 9 -29 31 -3 27 -2 27 52 27 l56
0 0 34 c0 25 -7 40 -26 55 -31 24 -49 26 -84 8z m54 -23 c25 -10 19 -43 -8
-50 -31 -7 -46 1 -46 26 0 24 24 35 54 24z"/>
<path d="M17861 9139 c-58 -62 -9 -183 66 -164 29 7 63 32 63 47 0 14 -27 9
-40 -8 -8 -8 -25 -14 -39 -12 -20 2 -26 9 -26 28 0 23 4 25 55 30 53 5 55 6
53 34 -3 42 -30 66 -74 66 -26 0 -45 -7 -58 -21z m93 -25 c3 -7 -2 -18 -12
-22 -18 -10 -64 -2 -63 11 1 4 1 11 1 16 0 23 65 18 74 -5z"/>
<path d="M18428 9098 c-2 -78 0 -109 7 -116 11 -12 16 9 17 74 0 96 -1 104
-12 104 -5 0 -11 -28 -12 -62z"/>
<path d="M17084 8837 c-2 -7 -3 -82 -2 -167 l3 -155 100 -5 c55 -3 136 -3 180
0 l80 5 3 145 c1 80 0 155 -3 168 -5 22 -7 22 -181 22 -133 0 -176 -3 -180
-13z m326 -36 c12 -23 13 -230 2 -248 -9 -14 -277 -21 -290 -8 -10 9 -15 198
-8 241 l7 34 139 0 c127 0 140 -2 150 -19z"/>
<path d="M17630 8768 c-18 -7 -20 -17 -20 -122 0 -63 4 -117 9 -120 15 -9 29
17 33 59 3 34 7 40 28 43 48 5 69 12 84 28 21 21 20 77 -1 96 -20 18 -103 27
-133 16z m112 -44 c17 -38 0 -59 -48 -59 -35 0 -39 3 -42 28 -5 45 4 57 43 57
28 0 38 -5 47 -26z"/>
<path d="M18828 8770 c-22 -6 -23 -10 -26 -123 -2 -100 0 -117 13 -117 8 0 15
3 16 8 1 4 2 22 4 40 4 43 16 55 55 54 39 -1 60 -18 60 -47 0 -34 10 -55 26
-55 17 0 18 44 3 89 -9 24 -9 35 0 44 17 17 13 72 -6 89 -19 17 -105 27 -145
18z m112 -35 c15 -9 12 -51 -4 -64 -8 -7 -32 -11 -53 -9 -36 3 -38 5 -41 40
-2 28 1 37 15 41 22 5 69 1 83 -8z"/>
<path d="M18240 8755 c0 -8 5 -15 10 -15 6 0 10 7 10 15 0 8 -4 15 -10 15 -5
0 -10 -7 -10 -15z"/>
<path d="M20306 8754 c-3 -9 -6 -24 -6 -35 0 -17 -5 -19 -35 -13 -62 11 -102
-49 -83 -125 13 -51 29 -60 96 -54 l52 6 0 118 c0 109 -8 144 -24 103z m-18
-89 c17 -38 15 -80 -7 -106 -18 -22 -19 -22 -45 -6 -20 14 -26 26 -26 55 0 71
54 110 78 57z"/>
<path d="M18135 8731 c-5 -18 -43 -31 -91 -31 -23 0 -24 -2 -24 -85 0 -68 3
-85 15 -85 10 0 15 16 17 61 3 54 7 65 30 82 41 31 56 11 60 -76 3 -66 5 -72
26 -75 23 -3 32 21 12 33 -14 8 -13 108 1 122 8 8 8 19 -2 42 -16 35 -35 40
-44 12z"/>
<path d="M19901 8732 c-6 -11 -8 -52 -5 -93 7 -106 11 -119 34 -119 21 0 28
24 10 35 -13 8 -13 108 1 122 8 8 6 19 -5 42 -19 36 -22 37 -35 13z"/>
<path d="M17835 8690 c-10 -11 -20 -41 -22 -67 -4 -41 -1 -52 21 -75 24 -27
57 -35 91 -22 21 8 45 56 45 89 0 33 -24 81 -45 89 -32 12 -72 6 -90 -14z m85
-20 c30 -30 27 -83 -6 -109 -20 -15 -31 -18 -44 -11 -33 17 -37 91 -8 128 15
18 35 15 58 -8z"/>
<path d="M18240 8615 c0 -73 3 -96 13 -92 8 2 12 30 12 92 0 62 -4 90 -12 93
-10 3 -13 -20 -13 -93z"/>
<path d="M18325 8690 c-27 -29 -27 -120 -1 -149 28 -31 85 -28 117 5 35 37 33
108 -5 141 -34 29 -86 31 -111 3z m95 -29 c24 -46 5 -111 -33 -111 -34 0 -47
19 -47 65 0 23 5 46 12 53 18 18 56 14 68 -7z"/>
<path d="M18506 8685 c-3 -11 -6 -50 -6 -87 0 -54 3 -68 15 -68 11 0 15 11 15
38 0 20 5 54 11 75 9 33 14 38 37 35 26 -3 27 -5 30 -73 5 -115 42 -115 42 0
0 87 -16 105 -85 102 -44 -2 -55 -6 -59 -22z"/>
<path d="M19051 8684 c-42 -54 -26 -144 28 -162 31 -11 77 3 85 25 10 24 2 25
-32 6 -25 -14 -32 -15 -46 -4 -9 7 -16 21 -16 31 0 21 24 43 35 32 5 -4 5 -1
1 6 -4 6 -14 12 -22 12 -22 0 -17 38 7 51 27 14 54 -10 54 -49 0 -37 29 -36
33 1 5 46 -22 77 -68 77 -30 0 -43 -6 -59 -26z"/>
<path d="M19234 8701 c-2 -2 -4 -58 -4 -123 0 -98 3 -118 15 -118 8 0 15 9 15
19 0 41 10 49 49 44 32 -4 41 -1 59 22 29 36 30 103 2 138 -18 23 -27 26 -76
24 -31 -1 -57 -4 -60 -6z m106 -31 c33 -33 23 -97 -20 -120 -29 -16 -50 12
-50 69 0 69 30 91 70 51z"/>
<path d="M19458 8703 c-19 -5 -31 -30 -18 -38 5 -3 20 1 33 10 19 12 26 13 41
2 24 -18 11 -47 -23 -47 -62 0 -92 -59 -52 -99 16 -16 26 -18 51 -11 18 5 44
7 60 4 27 -6 28 -5 24 27 -2 19 -5 56 -8 82 -3 27 -10 55 -17 63 -11 13 -55
17 -91 7z m70 -120 c4 -24 -30 -48 -54 -39 -20 8 -18 54 4 59 31 9 47 2 50
-20z"/>
<path d="M19695 8692 c-10 -26 -5 -151 6 -158 17 -10 29 16 29 68 0 61 7 78
35 78 27 0 35 -17 35 -75 0 -53 8 -75 26 -75 20 0 19 128 -1 157 -13 18 -24
22 -70 20 -35 -1 -57 -7 -60 -15z"/>
<path d="M20017 8699 c-29 -17 -47 -73 -36 -113 14 -49 34 -66 79 -66 30 0 42
5 50 21 15 28 5 36 -19 15 -29 -26 -71 -12 -71 24 0 21 6 29 24 32 13 3 31 1
39 -4 25 -14 47 2 47 33 0 54 -63 87 -113 58z m67 -28 c23 -25 13 -41 -25 -41
-37 0 -50 27 -24 46 24 18 29 18 49 -5z"/>
<path d="M19629 8688 c-3 -30 3 -153 7 -158 19 -18 34 113 18 154 -7 19 -24
21 -25 4z"/>
<path d="M17084 8357 c-2 -7 -3 -85 -2 -172 l3 -160 180 0 180 0 3 150 c1 83
0 159 -2 171 -5 20 -12 21 -181 22 -135 2 -177 -1 -181 -11z m334 -156 c2 -82
-1 -138 -8 -145 -15 -15 -282 -10 -292 6 -13 22 -10 252 4 266 9 9 52 12 153
10 l140 -3 3 -134z"/>
<path d="M17659 8299 c-32 -12 -69 -76 -69 -120 0 -35 30 -94 59 -116 9 -7 38
-13 65 -13 42 0 53 5 82 34 30 30 34 40 34 85 0 29 -7 65 -15 81 -27 52 -92
72 -156 49z m90 -34 c55 -28 64 -112 18 -162 -35 -39 -98 -29 -122 18 -29 54
-12 122 35 146 32 16 35 16 69 -2z"/>
<path d="M18919 8300 c-15 -10 -24 -217 -10 -239 14 -22 31 -3 31 34 0 53 8
65 47 65 60 0 93 25 93 71 0 48 -31 73 -93 75 -30 1 -61 -2 -68 -6z m95 -30
c48 -18 29 -80 -24 -80 -14 0 -31 5 -38 12 -18 18 -15 55 6 67 22 13 25 13 56
1z"/>
<path d="M18000 8285 c0 -8 5 -15 10 -15 6 0 10 7 10 15 0 8 -4 15 -10 15 -5
0 -10 -7 -10 -15z"/>
<path d="M18271 8284 c0 -11 3 -14 6 -6 3 7 2 16 -1 19 -3 4 -6 -2 -5 -13z"/>
<path d="M18717 8293 c-9 -8 -9 -206 -1 -227 5 -13 9 -14 20 -5 10 8 14 38 14
109 0 117 -9 148 -33 123z"/>
<path d="M19321 8284 c0 -11 3 -14 6 -6 3 7 2 16 -1 19 -3 4 -6 -2 -5 -13z"/>
<path d="M19580 8256 c-5 -14 -6 -37 -1 -53 4 -15 6 -46 5 -68 -2 -51 11 -85
32 -85 12 0 15 6 10 26 -15 58 -17 104 -6 124 9 17 9 29 0 51 -15 35 -27 37
-40 5z"/>
<path d="M17896 8231 l-30 -6 0 -78 c1 -42 3 -80 7 -83 15 -16 27 13 27 67 0
54 2 61 25 71 14 6 25 17 25 25 0 14 -7 14 -54 4z"/>
<path d="M17994 8227 c-3 -8 -4 -47 -2 -88 2 -61 6 -74 21 -77 15 -3 17 5 17
71 0 42 -3 82 -6 91 -7 20 -23 21 -30 3z"/>
<path d="M18086 8217 c-21 -21 -26 -36 -26 -74 1 -69 26 -96 80 -88 36 5 40 4
40 -15 0 -32 -43 -47 -75 -26 -19 12 -25 13 -25 3 0 -40 71 -50 111 -17 21 19
24 31 27 116 3 53 1 99 -4 104 -5 5 -30 11 -56 15 -42 6 -50 4 -72 -18z m91
-31 c17 -36 13 -68 -12 -100 -37 -48 -95 38 -64 95 25 50 53 51 76 5z"/>
<path d="M18267 8233 c-4 -3 -7 -44 -7 -90 0 -67 3 -83 15 -83 12 0 15 17 15
90 0 83 -5 101 -23 83z"/>
<path d="M18373 8233 l-33 -4 0 -85 c0 -64 3 -85 13 -82 7 3 14 31 17 72 5 69
18 90 49 78 26 -9 31 -23 31 -89 0 -49 3 -63 15 -63 12 0 15 15 15 74 0 102
-9 111 -107 99z"/>
<path d="M18558 8229 c-18 -10 -25 -39 -9 -39 5 0 14 7 21 15 18 21 48 19 55
-5 9 -28 -2 -40 -34 -40 -32 0 -71 -33 -71 -59 0 -38 55 -64 89 -42 9 6 21 5
32 -2 12 -7 22 -8 27 -2 13 14 -2 151 -18 170 -14 17 -66 20 -92 4z m72 -113
c0 -30 -20 -47 -48 -39 -27 7 -31 49 -4 56 40 11 52 7 52 -17z"/>
<path d="M19130 8225 c-19 -23 -2 -37 24 -20 28 19 56 10 56 -16 0 -21 -8 -25
-55 -33 -41 -7 -55 -30 -44 -69 5 -18 9 -33 9 -34 0 -8 70 -1 75 7 4 7 13 6
26 -1 12 -6 24 -8 27 -4 13 13 1 150 -15 168 -20 21 -86 23 -103 2z m78 -114
c5 -31 -11 -45 -42 -37 -30 7 -35 40 -8 55 26 16 47 9 50 -18z"/>
<path d="M19413 8233 l-33 -4 0 -85 c0 -64 3 -85 13 -82 7 3 13 25 15 54 4 79
10 94 36 94 34 0 44 -18 48 -85 2 -35 8 -60 16 -63 9 -3 12 16 12 71 0 104 -9
112 -107 100z"/>
<path d="M19312 8148 c4 -105 23 -107 23 -1 0 53 -4 78 -13 81 -10 3 -12 -15
-10 -80z"/>
<path d="M17097 7902 c-16 -3 -17 -17 -15 -170 l3 -167 169 -3 c116 -2 173 1
182 9 18 14 21 314 3 324 -11 7 -312 13 -342 7z"/>
<path d="M17614 7837 c-9 -25 1 -232 11 -230 6 1 12 23 15 47 3 25 9 48 13 52
4 4 26 8 49 8 59 1 64 26 4 26 -50 0 -70 19 -59 58 4 18 14 22 61 24 33 2 57
8 60 16 6 18 -147 17 -154 -1z"/>
<path d="M18105 7840 c-14 -22 -17 -210 -4 -226 22 -27 29 -2 29 104 0 105 -9
148 -25 122z"/>
<path d="M18476 7809 c-5 -28 -9 -31 -33 -26 -36 7 -59 -6 -78 -43 -38 -74 10
-166 76 -144 13 4 34 7 47 5 22 -2 22 -1 22 118 0 96 -3 121 -14 121 -7 0 -16
-14 -20 -31z m-10 -80 c24 -48 3 -109 -38 -109 -12 0 -24 12 -34 36 -16 38
-12 64 12 89 23 23 42 18 60 -16z"/>
<path d="M18029 7814 c-10 -35 -11 -204 -1 -204 16 0 19 21 13 125 -3 55 -9
91 -12 79z"/>
<path d="M18215 7783 c-48 -12 -70 -56 -60 -121 5 -36 12 -45 41 -59 38 -19
79 -11 98 19 15 25 1 33 -26 14 -44 -31 -92 -8 -66 33 10 16 21 20 57 18 37
-2 46 1 49 17 6 26 -16 62 -45 75 -13 6 -25 10 -26 10 -1 -1 -11 -4 -22 -6z
m53 -56 c5 -23 -45 -34 -65 -15 -13 13 -13 17 2 31 19 19 58 9 63 -16z"/>
<path d="M17831 7754 c-31 -40 -28 -104 5 -138 29 -28 50 -32 87 -15 30 14 47
48 47 95 0 76 -94 115 -139 58z m93 -16 c44 -63 -17 -154 -68 -102 -9 8 -16
32 -16 51 0 64 53 96 84 51z"/>
<path d="M17084 7407 c-2 -7 -3 -82 -2 -167 l3 -155 180 0 180 0 3 154 c2 98
-1 158 -8 166 -15 18 -349 20 -356 2z m220 -72 c-4 -8 -1 -15 5 -15 6 0 11 5
11 11 0 5 5 7 11 3 7 -4 6 -11 -5 -22 -12 -13 -18 -13 -31 -2 -12 10 -13 16
-4 26 15 18 20 18 13 -1z m98 -98 c-2 -56 -6 -104 -8 -106 -8 -9 -35 10 -28
20 4 7 8 37 8 68 1 31 5 62 9 69 5 7 4 12 -2 12 -8 0 -9 25 -2 47 1 1 7 0 14
-2 9 -4 11 -32 9 -108z m-222 94 c0 -16 -18 -22 -23 -9 -3 8 -6 5 -6 -5 -1
-10 6 -26 15 -34 13 -13 17 -14 24 -3 5 8 18 14 29 15 11 1 18 -2 15 -7 -4 -7
26 -13 49 -9 4 0 7 -4 7 -10 0 -7 9 -9 23 -6 20 6 22 2 22 -28 0 -19 -3 -35
-7 -35 -9 0 4 -44 16 -52 6 -4 -7 -8 -29 -8 -22 -1 -72 -2 -110 -4 l-70 -2 0
103 c0 100 1 103 23 103 12 0 22 -4 22 -9z m84 -3 c-3 -5 -12 -7 -19 -4 -8 3
-15 0 -17 -6 -3 -7 -10 -8 -17 -4 -10 7 -10 10 -1 16 17 11 61 9 54 -2z m61
-48 c-3 -5 -11 -10 -16 -10 -6 0 -7 5 -4 10 3 6 11 10 16 10 6 0 7 -4 4 -10z"/>
<path d="M17290 7234 c0 -8 5 -12 10 -9 6 4 8 11 5 16 -9 14 -15 11 -15 -7z"/>
<path d="M17171 7222 c0 -7 -5 -11 -10 -7 -5 3 -12 1 -16 -5 -3 -5 2 -10 12
-11 10 0 13 -3 6 -6 -26 -10 -13 -33 20 -34 17 -1 53 -3 78 -5 45 -3 47 -2 51
27 4 24 1 29 -16 29 -15 0 -17 -3 -8 -12 7 -7 12 -16 12 -22 0 -5 -6 -1 -14 9
-18 25 -55 28 -48 3 3 -12 -1 -18 -12 -18 -9 0 -15 6 -13 13 1 6 -6 11 -15 9
-10 -2 -18 6 -21 20 -2 13 -5 17 -6 10z"/>
<path d="M17617 7363 c-4 -3 -7 -57 -7 -120 0 -94 3 -113 15 -113 12 0 15 14
15 69 0 72 14 100 34 67 58 -99 88 -136 106 -136 20 0 21 5 18 118 -3 133 -20
155 -28 37 -3 -41 -9 -75 -15 -76 -5 0 -27 28 -48 63 -55 90 -73 108 -90 91z"/>
<path d="M18312 7357 c-6 -7 -27 -57 -47 -112 -36 -100 -39 -139 -10 -115 8 7
15 18 15 26 0 21 27 41 52 38 12 -1 29 -3 35 -3 7 -1 21 -17 30 -36 12 -23 22
-32 31 -26 10 6 4 30 -23 105 -51 141 -59 153 -83 123z m34 -82 c8 -32 -1 -55
-21 -55 -22 0 -30 27 -17 56 15 31 30 31 38 -1z"/>
<path d="M18825 7351 c-3 -5 -1 -12 5 -16 5 -3 10 1 10 9 0 18 -6 21 -15 7z"/>
<path d="M18899 7353 c-1 -12 -1 -71 0 -150 1 -58 4 -73 16 -73 12 0 15 19 15
115 0 96 -3 115 -15 115 -8 0 -15 -3 -16 -7z"/>
<path d="M19356 7353 c-3 -3 -6 -55 -6 -115 0 -89 3 -108 15 -108 12 0 15 19
15 109 0 100 -6 131 -24 114z"/>
<path d="M19158 7259 c-2 -50 0 -99 4 -109 10 -27 71 -44 100 -29 36 19 47 40
48 90 0 60 -26 89 -79 89 -33 0 -40 4 -45 25 -13 51 -25 23 -28 -66z m104 4
c32 -28 13 -123 -24 -123 -42 0 -66 91 -32 124 20 20 33 20 56 -1z"/>
<path d="M18048 7322 c-9 -35 4 -181 18 -193 20 -16 36 -2 24 21 -13 25 -13
113 1 127 8 8 6 18 -6 37 -20 30 -31 33 -37 8z"/>
<path d="M17867 7290 c-31 -25 -43 -74 -27 -114 14 -38 38 -55 77 -56 43 0 73
39 73 94 -1 44 -13 66 -47 84 -31 17 -47 15 -76 -8z m77 -26 c31 -31 11 -124
-27 -124 -26 0 -47 34 -47 76 0 58 39 83 74 48z"/>
<path d="M18649 7291 c-31 -25 -16 -48 17 -27 30 21 53 20 61 0 7 -20 -21 -44
-52 -44 -35 0 -61 -35 -49 -68 10 -30 54 -42 78 -23 10 8 22 8 40 1 l27 -10
-7 78 c-3 42 -12 83 -18 90 -20 21 -73 23 -97 3z m70 -90 c18 -11 5 -48 -19
-56 -38 -12 -54 20 -24 49 18 18 24 19 43 7z"/>
<path d="M18820 7220 c0 -69 3 -91 13 -88 19 7 22 151 2 168 -13 11 -15 2 -15
-80z"/>
<path d="M19463 7295 c-22 -9 -34 -23 -38 -42 -4 -15 -8 -33 -10 -40 -7 -21
16 -73 35 -83 47 -25 120 0 106 36 -4 11 -10 14 -14 8 -12 -18 -50 -34 -66
-28 -19 7 -21 40 -4 50 7 5 31 8 53 9 37 0 40 2 43 31 2 25 -3 37 -24 53 -31
24 -38 25 -81 6z m51 -21 c23 -9 20 -41 -5 -47 -44 -12 -68 21 -31 42 21 13
17 12 36 5z"/>
<path d="M18446 7292 c-14 -22 41 -172 63 -172 15 0 28 23 54 96 24 66 25 84
7 84 -6 0 -29 -54 -46 -109 -7 -22 -31 5 -38 43 -8 41 -30 74 -40 58z"/>
<path d="M18992 7288 c-14 -14 -16 -38 -3 -38 5 0 14 7 21 15 7 8 20 15 30 15
10 0 23 -7 30 -15 17 -20 -3 -45 -37 -45 -40 0 -63 -18 -63 -49 0 -42 23 -57
69 -45 22 6 48 7 61 2 22 -8 22 -7 16 29 -3 21 -6 55 -6 75 0 20 -7 44 -16 52
-18 19 -85 21 -102 4z m82 -94 c10 -27 -12 -56 -42 -52 -32 4 -40 29 -17 52
21 20 51 21 59 0z"/>
<path d="M8090 6390 c-119 -31 -215 -85 -295 -165 -66 -65 -165 -209 -165
-239 0 -7 -3 -16 -7 -20 -19 -19 -34 -94 -39 -201 -7 -135 6 -210 56 -322 84
-187 257 -334 447 -380 86 -20 278 -22 353 -4 49 12 195 78 224 102 106 85
170 166 227 285 50 104 62 172 56 309 -6 139 -36 236 -107 344 -96 147 -200
225 -383 287 -92 31 -253 33 -367 4z m345 -46 c79 -20 159 -64 238 -130 162
-133 234 -302 224 -524 -5 -118 -28 -197 -86 -295 -110 -189 -317 -305 -541
-305 -109 0 -195 21 -295 70 -164 82 -258 195 -318 386 -34 109 -39 195 -17
297 25 110 43 157 87 229 34 55 164 188 184 188 5 0 30 13 56 29 68 40 134 60
238 69 106 9 149 6 230 -14z"/>
<path d="M8119 6117 c-96 -40 -175 -117 -233 -225 -54 -101 -45 -256 20 -368
101 -172 314 -257 487 -194 100 37 160 85 225 181 74 110 83 278 22 397 -42
81 -118 155 -199 194 -55 26 -78 31 -165 35 -90 3 -107 1 -157 -20z m249 -38
c149 -47 240 -155 267 -315 16 -99 -37 -238 -119 -309 -115 -102 -281 -120
-424 -48 -254 128 -250 515 7 644 84 43 190 54 269 28z"/>
<path d="M15855 6390 c-245 -64 -452 -282 -499 -525 -18 -94 -14 -254 7 -331
50 -178 200 -350 375 -431 86 -39 128 -49 238 -58 212 -17 401 56 555 217 119
123 181 280 182 458 1 129 -13 188 -71 309 -37 78 -59 108 -131 181 -69 70
-102 95 -171 129 -47 23 -95 43 -106 45 -12 3 -39 9 -60 15 -62 17 -239 13
-319 -9z m314 -40 c29 -6 95 -31 146 -56 266 -132 406 -440 331 -726 -48 -183
-159 -324 -326 -409 -94 -49 -180 -69 -287 -69 -194 1 -347 67 -481 210 -170
179 -211 479 -98 710 63 128 154 214 323 306 20 11 127 37 193 47 32 5 130 -2
199 -13z"/>
<path d="M15890 6117 c-118 -49 -190 -120 -247 -243 -35 -76 -38 -201 -9 -279
49 -130 144 -225 264 -265 161 -54 341 0 451 137 80 100 114 220 92 323 -33
156 -141 283 -279 329 -86 29 -198 28 -272 -2z m268 -49 c88 -33 151 -91 195
-180 33 -67 38 -86 38 -150 1 -91 -6 -118 -44 -191 -127 -243 -507 -242 -640
0 -37 70 -53 172 -38 245 50 235 268 358 489 276z"/>
<path d="M11095 3067 c-115 -4 -332 -10 -481 -12 l-271 -6 -41 -102 c-23 -56
-59 -146 -82 -200 l-41 -98 52 -98 53 -98 -39 -48 c-35 -42 -40 -55 -43 -111
-5 -72 17 -121 69 -151 16 -10 31 -24 33 -33 2 -8 10 -40 17 -70 22 -103 66
-172 130 -207 32 -17 82 -18 874 -23 l840 -5 3 -168 c2 -153 4 -168 20 -165
15 3 17 21 20 157 1 93 7 160 13 168 9 11 160 13 806 13 761 0 795 1 831 19
70 36 107 94 122 188 16 103 17 108 47 124 40 20 54 36 68 76 23 67 5 138 -49
195 -27 28 -32 48 -17 63 18 19 91 166 91 183 0 10 -37 83 -81 162 -45 80 -93
164 -106 188 l-24 42 -255 0 c-160 0 -263 4 -275 11 -24 12 -1962 18 -2284 6z
m2139 -53 c8 -20 8 -112 0 -142 l-6 -22 -202 2 c-192 3 -201 4 -204 23 -2 11
-9 25 -14 32 -12 15 -1279 18 -1308 3 -10 -5 -20 -20 -22 -32 -3 -23 -4 -23
-215 -26 -194 -2 -213 -1 -221 15 -14 28 -15 132 -2 149 11 12 165 14 1100 14
983 0 1088 -2 1094 -16z m-2244 -49 c3 -22 4 -145 2 -272 l-3 -233 -329 0
-330 0 -20 33 c-11 17 -34 60 -52 93 l-32 62 28 68 c15 38 32 78 37 89 5 11
24 58 43 105 l34 85 179 5 c98 3 237 5 308 5 l130 0 5 -40z m2903 17 c9 -8 38
-54 64 -101 26 -47 58 -104 70 -126 60 -104 59 -96 22 -161 -19 -33 -43 -76
-54 -97 l-20 -37 -345 2 -345 3 -3 260 c-2 225 0 262 13 271 11 8 97 10 298 7
237 -4 285 -7 300 -21z m-1121 -137 c25 -56 43 -54 -623 -54 -569 1 -610 2
-619 18 -5 10 -6 27 -3 39 l5 22 614 0 614 0 12 -25z m-1292 -70 l10 -25 172
-2 c173 -2 567 -1 943 1 198 1 200 1 210 24 10 22 14 22 204 25 110 1 198 -2
205 -7 7 -6 11 -45 10 -108 l-2 -98 -1088 -3 c-667 -1 -1092 2 -1097 7 -10 10
-10 188 -1 203 3 4 100 8 215 8 l209 0 10 -25z m1749 -249 c7 -8 11 -25 9 -38
l-3 -23 -1090 -3 c-1016 -2 -1091 -1 -1102 15 -17 22 -16 28 2 46 22 23 2166
25 2184 3z m772 -128 c63 -41 76 -146 25 -197 l-26 -26 -1848 0 c-1472 0
-1851 3 -1869 13 -34 19 -49 81 -33 136 14 52 37 76 80 85 17 3 844 6 1838 6
1674 0 1810 -1 1833 -17z m-57 -285 c4 -9 -1 -52 -10 -96 -20 -93 -55 -139
-119 -156 -28 -7 -542 -10 -1656 -11 -1430 0 -1621 2 -1660 15 -52 19 -84 47
-109 95 -22 45 -44 136 -36 155 5 13 220 15 1795 15 1671 0 1789 -1 1795 -17z"/>
<path d="M10527 2322 c-50 -55 21 -124 73 -72 25 25 26 52 2 73 -24 22 -55 21
-75 -1z"/>
<path d="M11579 2316 c-25 -55 20 -103 70 -76 24 12 29 68 9 88 -22 22 -67 15
-79 -12z"/>
<path d="M12618 2329 c-22 -12 -23 -47 -2 -77 16 -24 44 -28 75 -12 22 12 27
68 7 88 -15 15 -57 15 -80 1z"/>
<path d="M13674 2316 c-13 -22 -14 -29 -2 -53 25 -52 98 -35 98 22 0 53 -67
75 -96 31z"/>
<path d="M10545 2066 c-51 -22 -75 -115 -39 -150 35 -36 52 -39 192 -37 78 1
85 3 113 30 49 50 32 138 -32 160 -44 15 -197 13 -234 -3z m238 -54 c22 -20
22 -47 -2 -71 -14 -14 -35 -19 -98 -20 -99 -2 -128 4 -140 32 -14 31 3 75 30
79 57 8 193 -5 210 -20z"/>
<path d="M13505 2072 c-49 -16 -58 -29 -63 -85 -4 -50 -2 -58 21 -81 25 -25
31 -26 137 -26 152 0 180 15 180 98 -1 75 -51 102 -185 101 -38 -1 -79 -4 -90
-7z m221 -53 c24 -20 23 -51 -2 -76 -23 -23 -30 -24 -115 -22 -56 2 -97 8
-110 16 -22 16 -26 67 -6 80 33 20 209 22 233 2z"/>
<path d="M12133 1034 c-15 -24 -15 -29 -2 -53 26 -46 109 -33 109 18 0 58 -75
83 -107 35z"/>
</g>
</svg>
